# xmcd CD database file
#
# Track frame offsets:
#	187
#	16260
#	33917
#	50140
#	63925
#	82215
#	98437
#	117655
#
# Disc length: 1839 seconds
#
# Revision: 1
# Processed by: cddbd v1.5.1PL2 Copyright (c) Steve Scherf et al.
# Submitted via: CDex 1.51
#
DISCID=64072d08
DTITLE=Various Artist - 超魔神英雄伝ワタル シングルコレクション 1993 Oct.〜1998 Aug. DISC1 テーマ編
DYEAR=1999
DGENRE=アニメ
TTITLE0=a・chi-a・chi/エール
TTITLE1=a・chi-a・chi/DON'T MIND PARTY
TTITLE2=三重野瞳/Future
TTITLE3=宮村優子/くるみパン
TTITLE4=三重野瞳/ひとつのハートで
TTITLE5=三重野瞳/BOYS BE AMBITIOUS
TTITLE6=三重野瞳/POWER OF DREAM
TTITLE7=三重野瞳/がんばって
EXTD=YEAR: 1999
EXTT0=
EXTT1=
EXTT2=
EXTT3=
EXTT4=
EXTT5=
EXTT6=
EXTT7=
PLAYORDER=
